<svg width="18" height="18" viewBox="0 0 18 18" fill="none" xmlns="http://www.w3.org/2000/svg">
<path d="M2.25 4.5V15C2.25 15.3978 2.40804 15.7794 2.68934 16.0607C2.97064 16.342 3.35218 16.5 3.75 16.5H14.25C14.6478 16.5 15.0294 16.342 15.3107 16.0607C15.592 15.7794 15.75 15.3978 15.75 15V4.5C15.75 4.10218 15.592 3.72064 15.3107 3.43934C15.0294 3.15804 14.6478 3 14.25 3H12.75V1.5H11.25V3H6.75V1.5H5.25V3H3.75C3.35218 3 2.97064 3.15804 2.68934 3.43934C2.40804 3.72064 2.25 4.10218 2.25 4.5ZM14.25 15H3.75V6H14.25V15Z" fill="black"/>
<path d="M12.1062 9.88347H8.98357V11.1776H10.7806C10.6133 12 9.91319 12.4725 8.98357 12.4725C8.72344 12.4729 8.46579 12.422 8.22538 12.3226C7.98498 12.2233 7.76655 12.0775 7.58264 11.8935C7.39872 11.7096 7.25292 11.4911 7.15362 11.2507C7.05431 11.0103 7.00345 10.7526 7.00394 10.4925C7.0035 10.2324 7.0544 9.97475 7.15373 9.73437C7.25305 9.49399 7.39885 9.27558 7.58277 9.09167C7.76668 8.90776 7.98509 8.76195 8.22547 8.66263C8.46585 8.5633 8.72347 8.5124 8.98357 8.51284C9.45569 8.51284 9.88244 8.68047 10.2173 8.95459L11.1923 7.97997C10.5983 7.46209 9.83669 7.14259 8.98357 7.14259C8.54324 7.14131 8.10701 7.22708 7.69996 7.39499C7.29291 7.5629 6.92307 7.80963 6.61171 8.12099C6.30036 8.43234 6.05363 8.80218 5.88572 9.20924C5.71781 9.61629 5.63203 10.0525 5.63332 10.4928C5.63198 10.9332 5.71772 11.3694 5.88562 11.7765C6.05351 12.1836 6.30023 12.5534 6.6116 12.8648C6.92297 13.1762 7.29283 13.4229 7.6999 13.5908C8.10698 13.7587 8.54323 13.8444 8.98357 13.8431C10.6587 13.8431 12.1819 12.6247 12.1819 10.4928C12.1819 10.2948 12.1516 10.0815 12.1062 9.88347Z" fill="black"/>
</svg>
