<svg xmlns="http://www.w3.org/2000/svg" width="665.24773" height="672.37143" viewBox="0 0 665.24773 672.37143">
  <g id="Capa_2" data-name="Capa 2">
    <g id="Capa_1-2" data-name="Capa 1">
      <g>
        <g>
          <path d="M414.19179,598.424c-3.57315-3.38807,6.1959-22.18129,15.48449-34.19713,8.09122-10.46607,13.48207-12.76256,15.739-21.54262,2.39672-9.31929-1.45636-15.36694,3.08981-20.21168,2.81974-3.00875,7.85968-4.46421,11.26278-3.20254,8.25492,3.06263,8.59256,22.77245,3.653,37.08309C453.58544,584.83724,419.00832,602.98973,414.19179,598.424Z" style="fill: #8e7e6f"/>
          <path d="M397.11069,570.82372c-.49244-25.8555,17.89249-58.983,37.38445-61.28759,5.40938-.64123,12.339.16869,12.82746,2.97347.44827,2.57843-4.86185,4.7425-8.2971,10.67219-3.85489,6.654-.95139,10.4469-2.17639,18.09809-2.20147,13.74587-13.72757,14.9961-23.82875,35.36332-5.18652,10.45731-5.555,17.001-8.17711,17.28843C401.189,594.33055,397.32781,582.11893,397.11069,570.82372Z" style="fill: #8e7e6f"/>
        </g>
        <g>
          <g>
            <path d="M326.73594,523.25349c.84516-4.3381,33.18622-9.4053,57.549,7.39916,27.4792,18.95408,31.95447,56.867,26.30813,60.01542-6.271,3.4967-23.45009-36.76809-69.881-59.19329C333.22152,527.857,326.32583,525.35849,326.73594,523.25349Z" style="fill: #7f6954"/>
            <path d="M322.02069,529.81043c-7.53845,5.09175-2.87048,35.97458,13.52123,53.71916,20.66559,22.37122,60.05279,23.95446,66.01541,12.39674,8.22528-15.9436-48.02458-55.20758-70.78761-65.28946C328.296,529.54126,324.59509,528.07157,322.02069,529.81043Z" style="fill: #7f6954"/>
          </g>
          <path d="M286.14369,303.68485c-78.47521,0-156.95092.14425-235.42508-.1408-13.20311-.048-19.07159,8.69992-18.84978,19.03609.24264,11.30638.26862,22.60166.94779,33.91076A421.02476,421.02476,0,0,0,38.59977,404.938a371.96682,371.96682,0,0,0,12.306,49.54329c7.54054,23.28376,16.89534,45.74328,29.54154,66.71638,14.91945,24.74312,32.89693,46.95543,55.52406,65.164,3.95145,3.17983,7.47728,6.80631,13.312,6.80015q135.70692-.14314,271.41412-.02685a13.18052,13.18052,0,0,0,8.378-2.64262,247.17594,247.17594,0,0,0,50.45441-52.74726,293.01925,293.01925,0,0,0,33.4028-62.44365,355.11133,355.11133,0,0,0,13.97793-43.26434,388.79467,388.79467,0,0,0,8.7751-46.32093c2.721-21.64552,4.47325-43.30448,4.23082-65.10593a19.41814,19.41814,0,0,0-4.20464-11.39382c-4.02372-5.38945-9.73484-5.54913-15.64221-5.5473Q403.10669,303.70555,286.14369,303.68485Zm-.42821,306.82974q-76.4568,0-152.91359-.01245c-35.645-.03423-71.28985-.2002-106.93484-.27092-6.64379-.01318-10.69021,5.35781-8.20963,11.3552,8.18178,19.78135,24.848,33.23905,47.11376,33.25217q221.13648.13034,442.2731.04473c21.595-.00007,38.39236-11.52435,46.16831-31.66857,3.14428-8.14541-.07133-13.01141-8.64586-12.99134-36.645.08579-73.29005.24242-109.93514.27885Q360.17347,610.57632,285.71548,610.51459ZM639.55909,432.693a67.7394,67.7394,0,0,0-3.599-25.331c-4.90083-14.92729-13.30071-26.98663-27.57458-34.56473-12.1105-6.42958-25.09025-9.01977-38.55767-10.03288-7.24152-.54474-7.31627-.54419-7.60869,6.88933a237.03167,237.03167,0,0,1-3.58345,31.13939A457.27589,457.27589,0,0,1,546.14534,455.412a359.22,359.22,0,0,1-26.07683,64.32526c-2.254,4.25369-1.8803,5.16237,2.79768,5.3266a158.5435,158.5435,0,0,0,38.62955-3.58188c21.38067-4.5661,39.50971-15.65428,54.0965-31.86312C630.02666,473.57938,640.8841,455.69791,639.55909,432.693ZM286.14159,276.85287c78.47917.00006,156.9617.40419,235.43542-.24688a42.18816,42.18816,0,0,1,42.45207,41.27259c.052,4.159.26825,8.34106-.072,12.47286-.36436,4.42335,1.32256,5.75311,5.6609,5.80614a115.99194,115.99194,0,0,1,47.54793,11.07259c17.12464,7.9058,28.09649,21.80038,36.60506,38.14365A97.451,97.451,0,0,1,664.68521,441.66c-1.963,18.49568-8.8792,35.46023-18.849,51.12141-17.66034,27.74175-43.12544,44.49656-74.42888,53.48408-21.19449,6.0852-42.61793,6.14322-64.22834,4.35149-3.74638-.31061-6.47083.58474-8.46439,3.68906-8.13529,12.66833-18.32889,23.64345-28.461,34.67233-.85527.93089-2.55891,1.75256-2.10253,3.0656.62,1.7838,2.59741,1.01845,3.98551,1.02089,24.32681.04272,48.65363.01434,72.9805.03753,13.84575.01318,21.94175,5.93863,26.00647,19.09746,2.27138,7.35316-.11673,14.09491-3.15636,20.65489-7.0279,15.16766-17.78642,26.68359-33.21621,33.543a60.02005,60.02005,0,0,1-16.613,4.726c-12.422,1.65872-24.86789,1.18412-37.30973,1.18711q-205.94515.0497-411.89028-.01867c-19.71-.01074-37.4328-5.63306-51.5798-20.14216A67.75321,67.75321,0,0,1,1.60791,627.36531c-5.90731-16.77372,4.98673-34.5657,24.0875-34.3364,23.49034.282,46.98666.06712,70.4804.06651,1.16634,0,2.33344.019,3.49878-.01653.97617-.02966,2.14516.16237,2.6592-.9085.55582-1.15794-.59143-1.787-1.19338-2.45817-2.5371-2.82916-5.18406-5.55947-7.74439-8.36819-22.85129-25.06862-40.24181-53.53994-53.47157-84.72585A397.35329,397.35329,0,0,1,19.6772,435.13305a455.02752,455.02752,0,0,1-8.8764-50.84685c-2.57691-20.51692-3.1289-41.06838-3.42427-61.666-.1607-11.20558,2.37191-21.6816,9.48443-30.65486,7.86311-9.92019,18.10306-15.10321,30.84415-15.10736q36.74022-.012,73.48043-.005Q203.66358,276.85228,286.14159,276.85287Z" style="fill: #514941"/>
          <path d="M115.04359,494.42641c3.84952-.09458,5.422,4.29637,7.51989,7.3498A211.91507,211.91507,0,0,0,194.16189,566.988c6.13308,3.46179,7.83046,6.14061,6.35367,10.41931-1.78309,5.16614-5.11614,6.645-9.97328,4.00509A228.26134,228.26134,0,0,1,151.1297,554.19a225.95754,225.95754,0,0,1-41.25823-46.40044c-1.39524-2.08822-2.79616-4.0602-2.622-6.80991C107.48876,497.20123,110.16836,494.41271,115.04359,494.42641Z" style="fill: #514941"/>
          <g>
            <path d="M59.20291,257.67126c-.70769-.34193-1.8185-.5197-2.21842-1.14911-.75369-1.1862.2225-2.19613.99821-3.08167A110.66241,110.66241,0,0,0,70.23294,235.7506c12.75418-22.0149,14.574-49.80282-6.1578-73.4294C48.81372,144.92881,40.246,124.88906,43.09772,101.11706c2.29661-19.14458,9.42495-36.46178,19.51494-52.76472C73.1752,31.28587,84.75647,15.13709,100.94493,2.86027c1.68128-1.27507,3.5757-4.22494,5.83691-2.1299,2.23357,2.06936-.54919,4.32124-1.58829,6.147-9.48744,16.67-18.11082,33.6387-21.86572,52.71712-5.309,26.97455-2.1707,52.58385,11.0803,76.90323,5.44175,9.98716,11.039,19.83589,14.44236,30.94872,4.987,16.2838,1.29969,31.38732-5.48207,45.59908-8.3711,17.54233-21.6275,31.41025-38.13595,41.91822A46.09265,46.09265,0,0,1,59.20291,257.67126Z" style="fill: #514941"/>
            <path d="M445.99351,2.32821c1.881,7.47419-3.62525,12.13662-6.41928,17.165-17.671,31.802-24.55925,64.75952-13.03471,100.24791,3.41956,10.53,9.01315,19.976,14.38522,29.56875,20.4985,36.60386,5.68241,68.604-19.60122,93.514a89.75106,89.75106,0,0,1-14.1321,10.881c-2.52868,1.64768-5.80266,5.65651-8.56274,2.91179-3.0657-3.04866,1.52153-5.57,3.18405-8.07284,7.25308-10.91916,13.97135-21.83893,16.74485-35.13818,3.90833-18.74133-2.18425-34.12513-13.32623-48.334-6.07327-7.74486-12.0422-15.56344-16.1629-24.52566-9.95879-21.65952-7.43244-43.63176.72941-64.80759,9.62785-24.97937,24.70554-46.71168,44.2844-65.16451C437.54,7.31508,440.94781,4.019,445.99351,2.32821Z" style="fill: #514941"/>
            <path d="M291.04725,156.446c6.43783,0,11.148-.15081,15.84586.02554,23.04467.86512,32.98028-17.48654,25.99146-38.91374-10.79033-33.08247-41.656-34.607-65.63111-8.04188-22.01843,24.397-21.85685,51.725-10.57829,80.4878,8.117,20.7,20.14619,39.11208,33.37769,56.81524,3.50728,4.69253,6.03363,10.93412,4.73209,11.32718-5.13392,1.55039-7.16642-3.087-10.00677-5.591-24.67656-21.75483-42.81084-48.31524-48.5568-80.65913-5.90676-33.24866,1.32468-68.08419,31.28243-86.63772,21.14571-13.096,42.941-13.911,59.76585-1.84531,19.92135,14.28622,28.3596,43.75247,18.49984,64.60117-6.111,12.922-23.79268,19.93786-40.23463,15.106C301.21842,161.85167,295.76669,162.46013,291.04725,156.446Z" style="fill: #514941"/>
            <path d="M137.64489,165.51582c.85837-35.40347,18.7678-60.52621,43.58435-81.81084,4.72751-4.05466,10.16261-7.2957,15.34869-10.79745,1.52181-1.02755,3.08436-4.01082,5.11559-1.50189,1.61758,1.998.73692,4.429-1.35923,6.30983-7.33666,6.58307-13.6388,14.06573-19.78565,21.78979-14.40068,18.09571-22.95271,38.79-24.44713,61.45774-1.25214,18.99134,4.626,37.13763,13.76516,54.09952,8.12829,15.08573,18.66843,28.27637,30.109,40.859,1.94848,2.143,5.54877,4.642,3.11217,7.27435-2.13584,2.3075-5.00528-.91924-7.301-2.56617-26.52865-19.03111-47.16136-42.42556-55.92708-74.76864C137.94134,178.78275,138.60814,171.52545,137.64489,165.51582Z" style="fill: #514941"/>
            <g>
              <path d="M507.59156,259.1664c-9.55106-2.9979-11.58532-10.4972-14.7357-16.76115-10.85774-21.58834-5.24129-41.52409,6.1177-61.09328,13.156-22.66532,13.44581-46.59757,5.636-71.05042-1.24187-3.88845-.60536-8.23152-2.94822-11.85448a92.12887,92.12887,0,0,1,19.879,56.001c.282,12.53841-3.9366,23.64914-10.28649,33.71232C496.94669,210.794,499.95542,234.03623,507.59156,259.1664Z" style="fill: #514941"/>
              <path d="M505.30382,83.15859c1.02835-.30165-.83019-9.46015,3.16138-16.28413,1.66048-2.83878,1.29772-2.31856,3.16139-5.428,2.01146-3.35612,4.07888-9.77892,1.58069-14.47479-3.16747-5.95395-12.66754-7.2388-17.38762-1.80934-3.17392,3.65088-4.16321,10.31084-1.58069,14.47478,1.1531,1.85926,3.58579,4.13566,6.32277,3.61869,3.22622-.6094,5.20141-4.78391,4.74208-5.428-.4905-.68786-3.528,2.97183-6.32277,1.80935-2.16593-.90089-3.45516-4.39392-3.16139-7.23739.48673-4.71,5.40729-8.51072,9.48416-7.23739,3.4102,1.06507,4.67415,5.19431,4.74207,5.428.89869,3.09256,1.5807,3.61869-3.16138,10.85609s-4.75,11.77357-4.74208,12.66543C502.1872,79.18921,504.59114,83.36764,505.30382,83.15859Z" style="fill: #514941"/>
            </g>
          </g>
        </g>
      </g>
    </g>
  </g>
</svg>
