<svg width="18" height="18" viewBox="0 0 18 18" fill="none" xmlns="http://www.w3.org/2000/svg">
<path d="M3.75 15C3.75 15.3978 3.90804 15.7794 4.18934 16.0607C4.47064 16.342 4.85218 16.5 5.25 16.5H12.75C13.1478 16.5 13.5294 16.342 13.8107 16.0607C14.092 15.7794 14.25 15.3978 14.25 15V6H15.75V4.5H12.75V3C12.75 2.60218 12.592 2.22064 12.3107 1.93934C12.0294 1.65804 11.6478 1.5 11.25 1.5H6.75C6.35218 1.5 5.97064 1.65804 5.68934 1.93934C5.40804 2.22064 5.25 2.60218 5.25 3V4.5H2.25V6H3.75V15ZM6.75 3H11.25V4.5H6.75V3ZM6 6H12.75V15H5.25V6H6Z" fill="black"/>
<path d="M6.75 7.5H8.25V13.5H6.75V7.5ZM9.75 7.5H11.25V13.5H9.75V7.5Z" fill="black"/>
</svg>
