<svg width="302" height="201" viewBox="0 0 302 201" fill="none" xmlns="http://www.w3.org/2000/svg">
<path d="M52.34 40.82L41.22 50.92C39.47 48.5 37.59 46.7 35.6 45.53C33.6 44.36 31.26 43.78 28.56 43.78C25.6 43.78 23.26 44.52 21.56 46C19.85 47.49 19 49.17 19 51.06C19 52.36 19.36 53.52 20.08 54.53C20.8 55.54 21.9 56.35 23.38 56.95C24.86 57.55 27.6 58.26 31.6 59.07C37.71 60.33 42.27 61.73 45.27 63.28C48.28 64.83 50.6 67 52.24 69.78C53.88 72.57 54.7 75.71 54.7 79.21C54.7 83.25 53.69 86.91 51.67 90.19C49.65 93.47 46.51 96.11 42.24 98.11C37.97 100.11 32.67 101.11 26.34 101.11C20.05 101.11 14.83 100.17 10.68 98.28C6.52 96.39 2.96 93.83 0 90.6L10.98 80.16C13.54 83.12 16.01 85.24 18.39 86.49C20.77 87.75 23.49 88.38 26.54 88.38C30.13 88.38 32.85 87.61 34.69 86.06C36.53 84.51 37.45 82.68 37.45 80.57C37.45 79.22 37.1 78.02 36.41 76.97C35.71 75.92 34.76 75.08 33.55 74.48C32.34 73.87 30.38 73.3 27.69 72.76C20.86 71.4 15.84 70 12.63 68.54C9.42 67.08 6.9 64.97 5.09 62.21C3.27 59.45 2.36 56.18 2.36 52.41C2.36 46.35 4.68 41.26 9.33 37.15C13.98 33.04 20.48 30.99 28.83 30.99C34.53 30.99 39.61 32.05 44.05 34.16C47.2 35.63 49.96 37.86 52.34 40.82Z" fill="#CC2838"/>
<path d="M122.7 40.69L111.25 52.34C108.92 49.92 106.65 48.19 104.45 47.15C102.25 46.12 99.8501 45.6 97.2401 45.6C92.1201 45.6 87.8201 47.48 84.3401 51.22C80.8601 54.97 79.1201 60.01 79.1201 66.34C79.1201 72.49 80.9201 77.47 84.5101 81.26C88.1001 85.05 92.4801 86.95 97.6501 86.95C100.43 86.95 102.9 86.39 105.06 85.27C107.22 84.15 109.42 82.24 111.66 79.54L122.57 91.6C116.51 98.02 108.13 101.23 97.4501 101.23C87.0801 101.23 78.6301 98.01 72.1201 91.56C65.6101 85.12 62.3501 76.66 62.3501 66.2C62.3501 55.78 65.6701 47.31 72.3201 40.77C78.9701 34.24 87.5401 30.97 98.0501 30.97C103.21 30.97 107.92 31.85 112.16 33.6C116.4 35.36 119.91 37.72 122.7 40.69Z" fill="#CC2838"/>
<path d="M195.55 71.4699H145.7C146.51 76.8999 148.55 81.0499 151.83 83.8999C155.11 86.7499 159.24 88.1799 164.22 88.1799C167.36 88.1799 170.24 87.4699 172.84 86.0599C175.44 84.6499 178.09 82.2799 180.79 78.9499L192.71 87.9099C188.98 92.4499 184.74 95.7999 179.98 97.9799C175.22 100.16 169.54 101.25 162.94 101.25C152.34 101.25 143.93 97.8699 137.71 91.1099C131.49 84.3499 128.38 75.9699 128.38 65.9499C128.38 55.7999 131.62 47.4699 138.11 40.9599C144.6 34.4499 152.9 31.1899 163 31.1899C169.38 31.1899 175.11 32.6499 180.21 35.5699C185.31 38.4899 189.16 42.5299 191.76 47.6899C194.36 52.8499 195.67 59.2499 195.67 66.8899C195.68 67.8799 195.64 69.3999 195.55 71.4699ZM178.71 59.6799C178.62 54.8799 177.1 51.0199 174.16 48.1299C171.22 45.2399 167.48 43.7899 162.95 43.7899C158.5 43.7899 154.7 45.2099 151.53 48.0299C148.36 50.8499 146.45 54.7399 145.77 59.6799H178.71Z" fill="#CC2838"/>
<path d="M255.06 40.82L243.95 50.92C242.2 48.5 240.32 46.7 238.33 45.53C236.34 44.36 233.99 43.78 231.29 43.78C228.33 43.78 225.99 44.52 224.29 46C222.58 47.48 221.73 49.17 221.73 51.05C221.73 52.35 222.09 53.51 222.81 54.52C223.53 55.53 224.63 56.34 226.11 56.94C227.59 57.55 230.33 58.25 234.33 59.06C240.44 60.32 245 61.72 248 63.27C251 64.82 253.33 66.99 254.97 69.77C256.61 72.56 257.43 75.7 257.43 79.2C257.43 83.24 256.42 86.9 254.4 90.18C252.38 93.46 249.24 96.1 244.97 98.1C240.7 100.1 235.41 101.1 229.07 101.1C222.78 101.1 217.56 100.16 213.41 98.27C209.26 96.38 205.7 93.82 202.73 90.59L213.71 80.15C216.27 83.11 218.74 85.23 221.12 86.48C223.5 87.74 226.22 88.37 229.27 88.37C232.86 88.37 235.58 87.6 237.42 86.05C239.26 84.5 240.18 82.67 240.18 80.56C240.18 79.21 239.83 78.01 239.14 76.96C238.44 75.91 237.49 75.07 236.28 74.47C235.07 73.86 233.11 73.29 230.42 72.75C223.59 71.4 218.58 70 215.37 68.54C212.16 67.08 209.64 64.97 207.83 62.21C206.01 59.45 205.1 56.18 205.1 52.41C205.1 46.35 207.42 41.26 212.07 37.15C216.72 33.04 223.22 30.99 231.57 30.99C237.27 30.99 242.35 32.05 246.79 34.16C249.92 35.63 252.68 37.86 255.06 40.82Z" fill="#CC2838"/>
<path d="M277.6 0C280.47 0 282.91 1.01 284.91 3.03C286.91 5.05 287.91 7.48 287.91 10.31C287.91 13.18 286.9 15.62 284.88 17.62C282.86 19.62 280.43 20.62 277.61 20.62C274.73 20.62 272.3 19.62 270.3 17.62C268.3 15.62 267.3 13.19 267.3 10.31C267.3 7.48 268.3 5.06 270.3 3.03C272.29 1.01 274.72 0 277.6 0ZM285.88 33.01V99.36H269.31V33.01H285.88Z" fill="#CC2838"/>
<path d="M1.12988 135.47V115.36H6.62988V133.66C6.62988 136.51 6.96988 138.54 7.63988 139.78C8.71988 141.78 10.8499 142.77 14.0199 142.77C17.1899 142.77 19.3099 141.77 20.3999 139.78C21.0699 138.55 21.4099 136.51 21.4099 133.66V115.36H26.9099V135.47C26.9099 139.4 25.7399 142.42 23.3899 144.53C21.1299 146.53 18.0099 147.52 14.0199 147.52C10.0299 147.52 6.91988 146.52 4.68988 144.53C2.31988 142.42 1.12988 139.4 1.12988 135.47Z" fill="#FBFAFA"/>
<path d="M32.5 146.78V115.36H40.24L48.91 139.96H49L57.45 115.36H65.11V146.78H59.87V122.54H59.78L51.07 146.78H46.54L37.83 122.54H37.74V146.78H32.5Z" fill="#FBFAFA"/>
<path d="M69.1499 136.31H74.6499C74.6499 138.6 75.4299 140.33 76.9799 141.5C78.3599 142.53 80.2399 143.04 82.6099 143.04C84.8699 143.04 86.5799 142.54 87.7599 141.54C88.7599 140.69 89.2599 139.6 89.2599 138.28C89.2599 136.34 88.3899 135.05 86.6599 134.41C86.4199 134.32 83.2999 133.46 77.2899 131.81C72.6599 130.55 70.3399 127.89 70.3399 123.85C70.3399 120.89 71.5399 118.56 73.9499 116.85C76.0899 115.35 78.7199 114.61 81.8299 114.61C85.2599 114.61 88.0899 115.46 90.3199 117.16C92.6999 119.01 93.8799 121.5 93.8799 124.64H88.3799C88.1499 120.94 85.8899 119.1 81.5999 119.1C80.0699 119.1 78.7999 119.38 77.7699 119.94C76.4799 120.67 75.8299 121.76 75.8299 123.2C75.8299 125.22 77.0799 126.57 79.5699 127.23C82.0599 127.89 85.0799 128.7 88.6299 129.67C90.5899 130.26 92.1299 131.34 93.2499 132.93C94.2499 134.37 94.7499 135.95 94.7499 137.68C94.7499 140.97 93.4499 143.49 90.8299 145.25C88.5699 146.78 85.7099 147.54 82.2499 147.54C78.4399 147.54 75.3699 146.65 73.0499 144.86C70.5199 142.88 69.2099 140.03 69.1499 136.31Z" fill="#FBFAFA"/>
<path d="M96.9999 136.31H102.5C102.5 138.6 103.28 140.33 104.83 141.5C106.21 142.53 108.09 143.04 110.46 143.04C112.72 143.04 114.43 142.54 115.61 141.54C116.61 140.69 117.11 139.6 117.11 138.28C117.11 136.34 116.24 135.05 114.51 134.41C114.27 134.32 111.15 133.46 105.14 131.81C100.51 130.55 98.1899 127.89 98.1899 123.85C98.1899 120.89 99.3899 118.56 101.8 116.85C103.94 115.35 106.57 114.61 109.68 114.61C113.11 114.61 115.94 115.46 118.17 117.16C120.55 119.01 121.73 121.5 121.73 124.64H116.23C116 120.94 113.74 119.1 109.45 119.1C107.92 119.1 106.65 119.38 105.62 119.94C104.33 120.67 103.68 121.76 103.68 123.2C103.68 125.22 104.93 126.57 107.42 127.23C109.91 127.89 112.93 128.7 116.48 129.67C118.44 130.26 119.98 131.34 121.1 132.93C122.1 134.37 122.6 135.95 122.6 137.68C122.6 140.97 121.3 143.49 118.68 145.25C116.42 146.78 113.56 147.54 110.1 147.54C106.29 147.54 103.22 146.65 100.9 144.86C98.3699 142.88 97.0599 140.03 96.9999 136.31Z" fill="#FBFAFA"/>
<path d="M223.34 186.94C220.81 189.14 217.62 190.35 214.54 191.56C207.72 194.2 200.79 196.84 193.86 199.37C191.66 200.25 189.13 201.13 186.93 200.14C184.73 199.26 183.63 196.84 182.64 194.64C181.1 191.01 179.67 187.49 178.13 183.86C177.36 182.1 176.7 180.34 176.7 178.58C176.81 174.4 180.77 173.41 183.96 172.2C188.25 170.44 192.54 168.79 196.72 167.03C199.14 166.04 201.56 165.16 203.98 164.17C207.06 162.96 210.03 161.75 213.33 161.64C219.27 161.31 225.1 165.16 227.3 170.66C229.5 176.26 227.85 183.09 223.34 186.94Z" fill="#FBFAFA"/>
<path d="M189.08 200.68C188.33 200.68 187.59 200.55 186.88 200.23C184.63 199.33 183.52 196.86 182.54 194.68C181.77 192.87 181.02 191.06 180.29 189.3C179.56 187.54 178.8 185.71 178.03 183.89C177.17 181.92 176.59 180.26 176.59 178.57C176.69 174.73 180.02 173.52 182.96 172.45C183.28 172.33 183.6 172.21 183.92 172.1C185.71 171.37 187.53 170.64 189.29 169.94C191.73 168.97 194.25 167.96 196.68 166.94C197.89 166.44 199.13 165.97 200.32 165.51C201.51 165.05 202.74 164.58 203.94 164.08L204.26 163.96C207.28 162.77 210.12 161.65 213.33 161.55C219.25 161.21 225.16 165.04 227.4 170.63C229.61 176.27 227.93 183.16 223.41 187.02C220.95 189.16 217.87 190.37 214.89 191.54L214.58 191.66C206.51 194.78 199.94 197.27 193.9 199.47C192.31 200.09 190.67 200.68 189.08 200.68ZM214.04 161.71C213.81 161.71 213.57 161.72 213.34 161.73C210.17 161.84 207.33 162.95 204.34 164.13L204.02 164.25C202.81 164.74 201.58 165.22 200.4 165.68C199.21 166.14 197.98 166.62 196.77 167.11C194.34 168.13 191.81 169.14 189.38 170.12C187.62 170.82 185.8 171.55 184.01 172.28C183.69 172.4 183.37 172.52 183.05 172.64C180.03 173.74 176.91 174.87 176.81 178.58C176.81 180.23 177.38 181.87 178.23 183.82C179 185.64 179.76 187.47 180.49 189.23C181.22 190.98 181.97 192.79 182.74 194.6C183.7 196.74 184.8 199.18 186.98 200.05C189.12 201.01 191.54 200.2 193.84 199.28C199.88 197.07 206.46 194.59 214.52 191.47L214.83 191.35C217.79 190.19 220.86 188.98 223.29 186.87C227.75 183.06 229.4 176.26 227.22 170.7C225.09 165.4 219.63 161.71 214.04 161.71Z" fill="#FBFAFA"/>
<path d="M225.05 171.84L224.21 170.02C229.65 167.51 235.82 164.67 239.89 159.81C243.52 155.47 245.42 148.19 241.8 143.22C238.68 138.94 232.83 137.98 228.41 138.52C224.16 139.03 220.06 140.73 216.09 142.38C215.25 142.73 214.41 143.08 213.57 143.41C200.97 148.48 187.69 151.3 174.12 151.8C169.84 151.96 165.31 151.88 161.09 150.29C156.4 148.51 152.88 144.85 151.92 140.74C150.61 135.18 153.91 129.64 157.75 126.61C161.96 123.29 167.26 121.84 171.9 120.74C214.89 110.54 261.04 116.78 301.75 122.29L301.48 124.27C260.93 118.78 214.98 112.57 172.36 122.68C167.93 123.73 162.88 125.11 158.99 128.18C155.64 130.82 152.76 135.58 153.87 140.28C154.69 143.75 157.73 146.87 161.81 148.41C165.7 149.88 169.99 149.94 174.06 149.79C187.4 149.29 200.45 146.52 212.84 141.54C213.67 141.21 214.51 140.86 215.34 140.51C219.44 138.81 223.67 137.05 228.19 136.51C233.17 135.91 239.8 137.04 243.43 142.02C247.69 147.86 245.65 156.03 241.43 161.07C237.07 166.3 230.69 169.24 225.05 171.84Z" fill="#FBFAFA"/>
</svg>
